<svg width="230" height="52" viewBox="0 0 230 52" fill="none" xmlns="http://www.w3.org/2000/svg">
<rect width="229.452" height="52" fill="white"/>
<path d="M10.11 28.5212C10.11 28.5212 9.84237 28.0007 10.1437 27.5123C10.4442 27.0248 12.8673 22.8549 12.8673 22.8549C12.8673 22.8549 13.0912 22.6407 13.3736 22.747C13.6554 22.8533 13.4261 22.6643 13.4261 22.6643L13.3032 22.5643C13.3032 22.5643 13.056 22.3336 13.2383 21.9438C13.4206 21.5531 15.8539 17.4343 15.8539 17.4343C15.8539 17.4343 16.1364 17.0626 16.4628 17.0956C16.7892 17.1287 16.4847 16.9752 16.4847 16.9752L16.4299 16.942C16.4299 16.942 16.2123 16.7673 16.3979 16.4286C16.5825 16.0892 18.8108 12.3263 18.8108 12.3263C18.8108 12.3263 19.0603 11.9437 19.5174 11.8018C19.9737 11.6593 23.9629 10.3685 23.9629 10.3685C23.9629 10.3685 24.528 10.2378 24.8762 10.5111C25.2238 10.7843 25.007 10.3685 25.007 10.3685C25.007 10.3685 24.996 10.1173 25.2676 10.0189C25.5392 9.92043 30.4197 8.27919 30.4197 8.27919C30.4197 8.27919 31.1155 8.1705 31.3761 8.50908C31.6375 8.84856 31.5718 8.22484 31.5718 8.22484C31.5718 8.22484 31.5936 7.90747 32.1376 7.72155C32.6808 7.53574 37.1592 6.05911 37.1592 6.05911C37.1592 6.05911 38.2681 5.84016 38.5835 6.24502C38.8989 6.64978 41.8339 11.4734 41.8339 11.4734C41.8339 11.4734 41.9967 11.9216 41.7901 12.502C41.5834 13.0816 40.5402 15.6411 40.5402 15.6411C40.5402 15.6411 40.5073 15.7285 40.5832 15.7395C40.6599 15.7505 43.8884 16.0782 43.8884 16.0782C43.8884 16.0782 44.4095 16.1561 44.8337 16.8248C45.258 17.4942 47.8721 21.8351 47.8721 21.8351C47.8721 21.8351 48.0535 22.2312 47.9605 22.4044C47.9605 22.4044 48.2837 22.3375 48.5646 22.699C48.8456 23.0604 51.642 27.6109 51.642 27.6109C51.642 27.6109 51.8456 28.0384 51.5481 28.408C51.2515 28.7772 47.281 33.3629 47.281 33.3629C47.281 33.3629 47.0776 33.5442 46.4993 33.5205C46.4993 33.5205 46.5696 34.0938 46.3035 34.401C46.0383 34.7073 41.8408 39.5136 41.8408 39.5136C41.8408 39.5136 41.5122 39.6791 41.0982 39.6395C41.0982 39.6395 41.1842 40.2209 40.9885 40.4413C40.7938 40.6619 36.166 45.8132 36.166 45.8132C36.166 45.8132 35.6971 46.1202 35.3685 45.9471C35.0404 45.7746 22.7858 39.8319 22.7858 39.8319C22.7858 39.8319 22.4305 39.672 22.126 39.2994C21.8215 38.9278 19.0823 35.2522 19.0823 35.2522C19.0823 35.2522 18.9195 35.0554 19.2451 34.8373C19.5714 34.6183 19.1372 34.7277 19.1372 34.7277C19.1372 34.7277 18.8647 34.8483 18.7458 34.7389C18.626 34.6293 17.3214 33.0103 17.3214 33.0103L14.7348 33.5574C14.7348 33.5574 14.1908 33.5899 14.028 33.4371C13.8644 33.2834 10.11 28.5212 10.11 28.5212Z" fill="#120B14"/>
<path d="M19.0321 12.6147L17.2108 15.6154C17.2108 15.6154 16.9311 16.0878 17.5404 15.9371C18.1497 15.7863 21.5655 14.7813 21.5655 14.7813C21.5655 14.7813 21.9451 14.6709 22.2148 14.3291C22.4845 13.9874 24.1125 10.9623 24.1125 10.9623C24.1125 10.9623 24.3222 10.6004 23.8129 10.7412C23.3034 10.8818 19.7712 12.0218 19.7712 12.0218C19.7712 12.0218 19.2814 12.2024 19.0321 12.6147Z" fill="#EEC11C"/>
<path d="M24.8742 10.8259L23.4591 13.7932C23.4591 13.7932 23.1793 14.2656 23.7886 14.1149C24.3979 13.9641 27.868 12.9154 27.868 12.9154C27.868 12.9154 28.2475 12.8048 28.5172 12.4632C28.7867 12.1214 30.0568 9.11824 30.0568 9.11824C30.0568 9.11824 30.2666 8.75638 29.7573 8.89702C29.2478 9.03776 25.6133 10.2329 25.6133 10.2329C25.6133 10.2329 25.1384 10.3527 24.8742 10.8259Z" fill="#C60000"/>
<path d="M15.9848 17.7496L14.0889 21.1077C14.0889 21.1077 13.7915 21.6314 14.4302 21.4694C15.0689 21.3077 18.6084 20.3415 18.6084 20.3415C18.6084 20.3415 19.0064 20.2221 19.292 19.844C19.5776 19.4658 21.2946 16.0594 21.2946 16.0594C21.2946 16.0594 21.5178 15.6581 20.9836 15.8099C20.4496 15.9616 16.7639 17.0962 16.7639 17.0962C16.7639 17.0962 16.2746 17.2396 15.9848 17.7496" fill="#C60000"/>
<path d="M13.1308 23.1437L11.0244 26.861C11.0244 26.861 10.727 27.3848 11.3656 27.2228C12.0044 27.0611 15.5429 26.1577 15.5429 26.1577C15.5429 26.1577 15.9411 26.0383 16.2266 25.6602C16.5122 25.2819 18.316 21.6567 18.316 21.6567C18.316 21.6567 18.5393 21.2556 18.0051 21.4074C17.471 21.5591 13.9097 22.4903 13.9097 22.4903C13.9097 22.4903 13.4155 22.6503 13.1308 23.1437" fill="url(#paint0_linear_356_319)"/>
<path d="M19.3947 21.3905L17.5797 25.2571C17.5797 25.2571 17.2823 25.7808 17.921 25.6188C18.5596 25.4569 22.6131 24.4622 22.6131 24.4622C22.6131 24.4622 23.0111 24.3429 23.2967 23.9647C23.5823 23.5865 25.235 19.7802 25.235 19.7802C25.235 19.7802 25.4582 19.3791 24.924 19.5309C24.39 19.6825 20.1736 20.7371 20.1736 20.7371C20.1736 20.7371 19.6584 20.885 19.3947 21.3905" fill="#EEC11C"/>
<path d="M22.3526 15.8144L20.5071 19.3582C20.5071 19.3582 20.2096 19.8818 20.8483 19.7199C21.487 19.5581 25.3358 18.608 25.3358 18.608C25.3358 18.608 25.7338 18.4886 26.0194 18.1104C26.3049 17.7323 27.8687 14.0853 27.8687 14.0853C27.8687 14.0853 28.092 13.6841 27.5578 13.8359C27.0238 13.9876 23.1316 15.161 23.1316 15.161C23.1316 15.161 22.6162 15.309 22.3526 15.8144" fill="#EEC11C"/>
<path d="M26.5414 19.3753L24.7595 23.2922C24.7595 23.2922 24.4621 23.8159 25.1008 23.654C25.7394 23.4922 30.4307 22.2887 30.4307 22.2887C30.4307 22.2887 30.8287 22.1694 31.1141 21.7912C31.3996 21.413 32.7661 17.4833 32.7661 17.4833C32.7661 17.4833 32.9149 17.1047 32.4551 17.234C31.9208 17.3842 27.3202 18.7219 27.3202 18.7219C27.3202 18.7219 26.8294 18.8162 26.5414 19.3753" fill="url(#paint1_linear_356_319)"/>
<path d="M28.9951 13.8211L27.4933 17.2517C27.4933 17.2517 27.1959 17.7754 27.8345 17.6135C28.4732 17.4516 32.5634 16.2482 32.5634 16.2482C32.5634 16.2482 32.9615 16.1287 33.247 15.7507C33.5327 15.3725 34.892 11.8914 34.892 11.8914C34.892 11.8914 35.041 11.5127 34.581 11.642C34.0467 11.7921 29.774 13.1677 29.774 13.1677C29.774 13.1677 29.283 13.2621 28.9951 13.8211Z" fill="#C60000"/>
<path d="M31.4585 8.67596L30.1956 11.6223C30.1956 11.6223 29.8982 12.1459 30.5369 11.9841C31.1756 11.8221 34.9996 10.6187 34.9996 10.6187C34.9996 10.6187 35.3976 10.4994 35.6832 10.1212C35.9689 9.743 37.103 6.79101 37.103 6.79101C37.103 6.79101 37.2519 6.41238 36.7919 6.54158C36.2576 6.69179 32.2375 8.02256 32.2375 8.02256C32.2375 8.02256 31.7467 8.11694 31.4585 8.67596Z" fill="url(#paint2_linear_356_319)"/>
<path d="M43.9442 17.456C43.9442 17.456 44.3146 17.0961 44.5839 17.4899C44.7904 17.7917 47.2892 21.8666 47.2892 21.8666C47.2892 21.8666 47.5416 22.29 47.2722 22.578C47.0031 22.866 43.5739 26.8907 43.5739 26.8907C43.5739 26.8907 43.3382 27.0938 43.1194 26.8567C42.9007 26.6196 39.9887 22.4358 39.9887 22.4358C39.9887 22.4358 39.7697 22.0461 40.0558 21.7414C40.3419 21.4365 43.9442 17.456 43.9442 17.456Z" fill="#EEC11C"/>
<path d="M47.9203 23.4352C47.9203 23.4352 48.2906 23.0753 48.5601 23.4691C48.7666 23.7709 51.1289 27.6973 51.1289 27.6973C51.1289 27.6973 51.3814 28.1209 51.1121 28.4089C50.8428 28.6969 47.3684 32.7671 47.3684 32.7671C47.3684 32.7671 47.1328 32.9703 46.9138 32.7331C46.6951 32.496 44.01 28.3693 44.01 28.3693C44.01 28.3693 43.7913 27.9798 44.0774 27.6749C44.3634 27.37 47.9203 23.4352 47.9203 23.4352Z" fill="#C60000"/>
<path d="M42.4098 29.5905C42.4098 29.5905 42.7678 29.2179 43.0504 29.6022C43.267 29.8969 45.7992 33.617 45.7992 33.617C45.7992 33.617 46.0659 34.0315 45.8065 34.3286C45.5473 34.6258 41.93 38.7662 41.93 38.7662C41.93 38.7662 41.7015 38.9775 41.4746 38.7481C41.248 38.5186 38.5137 34.6946 38.5137 34.6946C38.5137 34.6946 38.2819 34.3126 38.5574 33.9982C38.833 33.6835 42.4098 29.5905 42.4098 29.5905Z" fill="#C60000"/>
<path d="M37.0184 35.5886C37.0184 35.5886 37.3763 35.2161 37.6589 35.6003C37.8755 35.8948 40.5861 39.5612 40.5861 39.5612C40.5861 39.5612 40.853 39.9759 40.5937 40.2728C40.3343 40.57 36.478 44.8951 36.478 44.8951C36.478 44.8951 36.2493 45.1064 36.0227 44.877C35.7958 44.6476 32.8542 40.9264 32.8542 40.9264C32.8542 40.9264 32.6223 40.5444 32.8979 40.23C33.1734 39.9152 37.0184 35.5886 37.0184 35.5886Z" fill="#EEC11C"/>
<path d="M32.5689 29.9677C32.5689 29.9677 32.9268 29.5954 33.2095 29.9797C33.4259 30.2742 36.3499 34.1715 36.3499 34.1715C36.3499 34.1715 36.6168 34.586 36.3572 34.8831C36.0982 35.1804 32.1084 39.5095 32.1084 39.5095C32.1084 39.5095 31.8797 39.7206 31.6528 39.4912C31.4261 39.2619 28.2898 35.2231 28.2898 35.2231C28.2898 35.2231 28.058 34.8413 28.3336 34.5268C28.6092 34.2121 32.5689 29.9677 32.5689 29.9677Z" fill="#C60000"/>
<path d="M38.2247 6.79772C38.2247 6.79772 38.3991 6.45894 38.6045 6.75147C38.7524 6.96243 41.5285 11.5095 41.5285 11.5095C41.5285 11.5095 41.7459 11.9252 41.5829 12.4174C41.4199 12.9096 40.1807 15.7535 40.1807 15.7535C40.1807 15.7535 39.9958 16.016 39.7459 15.6551C39.4958 15.2941 36.7892 10.8642 36.7892 10.8642C36.7892 10.8642 36.6261 10.558 36.7674 10.186C36.9087 9.81411 38.2247 6.79772 38.2247 6.79772Z" fill="#EEC11C"/>
<path d="M36.053 11.8333C36.053 11.8333 36.2275 11.4944 36.4327 11.787C36.5807 11.998 39.6144 16.6804 39.6144 16.6804C39.6144 16.6804 39.8319 17.0961 39.6688 17.5884C39.5058 18.0805 38.1796 21.3619 38.1796 21.3619C38.1796 21.3619 37.9949 21.6244 37.7448 21.2635C37.4948 20.9025 34.5273 16.5164 34.5273 16.5164C34.5273 16.5164 34.3642 16.2101 34.5056 15.8382C34.6468 15.4663 36.053 11.8333 36.053 11.8333Z" fill="#EEC11C"/>
<path d="M33.6677 17.5913C33.6677 17.5913 33.8423 17.2524 34.0475 17.5452C34.1955 17.7561 37.3343 22.4385 37.3343 22.4385C37.3343 22.4385 37.5516 22.8541 37.3886 23.3464C37.2256 23.8386 35.6384 27.5138 35.6384 27.5138C35.6384 27.5138 35.4537 27.7762 35.2037 27.4154C34.9537 27.0544 31.9426 22.6682 31.9426 22.6682C31.9426 22.6682 31.7796 22.362 31.9209 21.9901C32.0621 21.6182 33.6677 17.5913 33.6677 17.5913Z" fill="#C60000"/>
<path d="M24.776 25.1695C24.776 25.1695 24.4835 24.7325 24.981 24.6081C25.3697 24.5107 30.2196 23.2672 30.2196 23.2672C30.2196 23.2672 30.6961 23.1343 30.846 23.3474C30.9737 23.5292 34.0804 28.0576 34.0804 28.0576C34.0804 28.0576 34.5949 28.7491 34.0119 28.894C33.5079 29.0194 29.0237 29.9827 29.0237 29.9827C29.0237 29.9827 28.4931 30.1274 28.2835 29.8681C28.1005 29.6414 24.776 25.1695 24.776 25.1695Z" fill="#EEC11C"/>
<path d="M17.7652 27.018C17.7652 27.018 17.4877 26.6118 17.9598 26.4963C18.3289 26.4058 22.8281 25.3588 22.8281 25.3588C22.8281 25.3588 23.2806 25.2353 23.4228 25.4335C23.5441 25.6021 26.7765 29.81 26.7765 29.81C26.7765 29.81 27.265 30.4526 26.7116 30.5872C26.2331 30.7038 22.0164 31.6276 22.0164 31.6276C22.0164 31.6276 21.5125 31.7621 21.3137 31.5211C21.1399 31.3105 17.7652 27.018 17.7652 27.018Z" fill="#C60000"/>
<path d="M11.0725 28.585C11.0725 28.585 10.7949 28.179 11.267 28.0632C11.6361 27.9728 15.7837 26.9049 15.7837 26.9049C15.7837 26.9049 16.2363 26.7814 16.3786 26.9795C16.4997 27.1482 19.7317 31.3995 19.7317 31.3995C19.7317 31.3995 20.22 32.0424 19.6668 32.177C19.1881 32.2934 15.3009 33.1667 15.3009 33.1667C15.3009 33.1667 14.797 33.3011 14.5981 33.0602C14.4242 32.8494 11.0725 28.585 11.0725 28.585Z" fill="#EEC11C"/>
<path d="M23.8409 33.7011L26.7367 34.9421C26.7367 34.9421 27.1385 35.1231 27.3324 35.3881C27.5265 35.6531 30.6299 39.5567 30.6299 39.5567C30.6299 39.5567 31.0128 40.0637 30.4637 39.8218C30.0088 39.6212 27.18 38.2601 27.18 38.2601C27.18 38.2601 26.9305 38.1626 26.7228 37.8976C26.515 37.6327 23.5914 33.9101 23.5914 33.9101C23.5914 33.9101 23.2837 33.4483 23.8409 33.7011" fill="url(#paint3_linear_356_319)"/>
<path d="M28.3734 39.6197L31.2692 40.8606C31.2692 40.8606 31.6711 41.0417 31.8648 41.3067C32.059 41.5714 34.8857 45.0403 34.8857 45.0403C34.8857 45.0403 35.2687 45.5472 34.7195 45.3051C34.2647 45.1046 31.3436 43.6915 31.3436 43.6915C31.3436 43.6915 31.0942 43.5939 30.8864 43.329C30.6786 43.0643 28.1239 39.8287 28.1239 39.8287C28.1239 39.8287 27.8163 39.3669 28.3734 39.6197" fill="#C60000"/>
<path d="M23.9104 37.3591L26.8062 38.8302C26.8062 38.8302 27.208 39.0113 27.402 39.2761C27.596 39.5412 29.9248 42.6314 29.9248 42.6314C29.9248 42.6314 30.3077 43.1384 29.7586 42.8965C29.3037 42.6959 26.8654 41.5077 26.8654 41.5077C26.8654 41.5077 26.616 41.4101 26.4082 41.1453C26.2003 40.8804 23.661 37.5683 23.661 37.5683C23.661 37.5683 23.3533 37.1062 23.9104 37.3591" fill="url(#paint4_linear_356_319)"/>
<path d="M20.0243 35.5341L22.4272 36.7192C22.4272 36.7192 22.829 36.9002 23.0232 37.1653C23.2169 37.4302 25.5039 40.4781 25.5039 40.4781C25.5039 40.4781 25.8868 40.9852 25.3377 40.7431C24.8829 40.5426 22.9183 39.5824 22.9183 39.5824C22.9183 39.5824 22.6689 39.4848 22.461 39.2198C22.2534 38.955 19.7749 35.7433 19.7749 35.7433C19.7749 35.7433 19.4672 35.2812 20.0243 35.5341" fill="#EEC11C"/>
<path d="M34.8009 29.4557L37.3417 32.9471C37.3417 32.9471 37.6686 33.364 38.081 32.909C38.4428 32.5097 41.93 28.559 41.93 28.559C41.93 28.559 42.2523 28.1966 41.93 27.7386C41.6076 27.2807 39.1048 23.5604 39.1048 23.5604C39.1048 23.5604 38.741 23.0993 38.3653 23.4459C38.0588 23.7288 37.2468 24.5334 37.2468 24.5334C37.2468 24.5334 37.152 24.667 37.1142 24.7814C37.076 24.8959 36.0524 27.6432 36.0524 27.6432C36.0524 27.6432 35.6921 28.7879 34.8009 29.4557" fill="url(#paint5_linear_356_319)"/>
<path d="M22.1597 35.6643C22.1597 35.6643 22.4207 36.0321 22.8607 36.2573C23.301 36.4824 25.7996 37.6758 25.7996 37.6758C25.7996 37.6758 26.3215 37.901 25.9263 37.4206C25.531 36.9403 22.816 33.4802 22.816 33.4802C22.816 33.4802 22.5775 33.1427 22.3015 33.0226C22.0254 32.9024 20.7202 32.3545 20.7202 32.3545C20.7202 32.3545 20.4964 32.272 20.2279 32.3245C19.9594 32.3771 19.7133 32.4596 19.7133 32.4596C19.7133 32.4596 19.5939 32.5271 19.646 32.5873C19.6983 32.6474 22.1597 35.6643 22.1597 35.6643Z" fill="#C60000"/>
<path d="M18.7125 34.3537C18.7125 34.3537 18.9603 34.6362 19.2576 34.7748C19.5549 34.9133 21.2178 35.6279 21.2178 35.6279C21.2178 35.6279 21.8289 35.8274 21.4929 35.4118C21.1571 34.9963 19.3623 32.714 19.3623 32.714C19.3623 32.714 19.2136 32.5531 19.087 32.5809C18.9603 32.6087 17.705 32.8688 17.705 32.8688C17.705 32.8688 17.5839 32.9299 17.628 32.9964C17.6721 33.0628 18.7125 34.3537 18.7125 34.3537Z" fill="#C60000"/>
<path d="M69.8477 14.1229C71.962 14.1229 73.7371 14.8633 75.1732 16.3439C76.6093 17.8245 77.3273 19.7128 77.3273 22.0089C77.3273 24.3049 76.6093 26.1933 75.1732 27.6739C73.7371 29.1545 71.962 29.8948 69.8477 29.8948H67.0653V36.6542H61.71V14.1229H69.8477ZM69.8477 24.4229C70.4461 24.4229 70.9447 24.1976 71.3437 23.747C71.7625 23.2964 71.9719 22.717 71.9719 22.0089C71.9719 21.3008 71.7625 20.7321 71.3437 20.3029C70.9447 19.8523 70.4461 19.627 69.8477 19.627H67.0653V24.4229H69.8477Z" fill="#303030"/>
<path d="M82.9912 30.5708C83.4899 31.8797 84.6068 32.5342 86.3421 32.5342C87.4191 32.5342 88.3267 32.1587 89.0646 31.4076L92.6548 34.1114C91.1789 36.107 89.0347 37.1048 86.2224 37.1048C83.6893 37.1048 81.6549 36.3109 80.1191 34.7229C78.6032 33.1136 77.8453 31.0858 77.8453 28.6395C77.8453 26.2147 78.5932 24.1869 80.0891 22.5561C81.5851 20.9252 83.4899 20.1098 85.8035 20.1098C88.0374 20.1098 89.8824 20.9145 91.3384 22.5239C92.7945 24.1333 93.5225 26.1503 93.5225 28.5751C93.5225 29.2833 93.4527 29.9485 93.313 30.5708H82.9912ZM82.9314 26.8692H88.6757C88.2768 25.3671 87.3393 24.6161 85.8634 24.6161C84.3276 24.6161 83.3502 25.3671 82.9314 26.8692Z" fill="#303030"/>
<path d="M100.622 23.5539C100.901 22.5024 101.459 21.687 102.297 21.1076C103.135 20.5283 104.072 20.2386 105.109 20.2386V26.1611C103.973 25.9679 102.935 26.1933 101.998 26.837C101.08 27.4808 100.622 28.5322 100.622 29.9914V36.6542H95.6553V20.5604H100.622V23.5539Z" fill="#303030"/>
<path d="M124.165 20.1098C125.9 20.1098 127.266 20.7107 128.263 21.9123C129.281 23.0925 129.789 24.7234 129.789 26.8048V36.6542H124.793V27.4164C124.793 25.9143 124.175 25.1633 122.938 25.1633C122.26 25.1633 121.741 25.41 121.382 25.9036C121.043 26.3757 120.874 27.0301 120.874 27.867V36.6542H115.907V27.4164C115.907 25.9143 115.279 25.1633 114.022 25.1633C113.344 25.1633 112.826 25.41 112.467 25.9036C112.128 26.3757 111.958 27.0301 111.958 27.867V36.6542H106.992V20.5604H111.958V22.0733C112.875 20.7643 114.222 20.1098 115.997 20.1098C117.712 20.1098 118.989 20.7965 119.826 22.1698C120.864 20.7965 122.31 20.1098 124.165 20.1098Z" fill="#303030"/>
<path d="M141.953 20.5604H146.919V36.6542H141.953V35.0448C141.055 36.4182 139.669 37.1048 137.794 37.1048C136.179 37.1048 134.852 36.5147 133.815 35.3345C132.798 34.1328 132.289 32.4162 132.289 30.1845V20.5604H137.256V29.5086C137.256 30.3454 137.455 30.9785 137.854 31.4076C138.273 31.8368 138.822 32.0514 139.5 32.0514C140.278 32.0514 140.876 31.8046 141.295 31.3111C141.734 30.7961 141.953 30.0665 141.953 29.1223V20.5604Z" fill="#303030"/>
<path d="M159.069 25.6783H155.958V30.3454C155.958 31.0536 156.197 31.4935 156.676 31.6651C157.154 31.8368 157.952 31.8904 159.069 31.8261V36.6542C156.097 37.0404 154.003 36.7508 152.786 35.7851C151.59 34.7981 150.991 33.0277 150.991 30.4742V25.6783H148.747V20.5604H150.991V17.6636L155.958 16.0542V20.5604H159.069V25.6783Z" fill="#303030"/>
<path d="M165.53 30.5708C166.028 31.8797 167.145 32.5342 168.88 32.5342C169.957 32.5342 170.865 32.1587 171.603 31.4076L175.193 34.1114C173.717 36.107 171.573 37.1048 168.761 37.1048C166.228 37.1048 164.193 36.3109 162.657 34.7229C161.141 33.1136 160.384 31.0858 160.384 28.6395C160.384 26.2147 161.132 24.1869 162.627 22.5561C164.123 20.9252 166.028 20.1098 168.342 20.1098C170.576 20.1098 172.421 20.9145 173.877 22.5239C175.333 24.1333 176.061 26.1503 176.061 28.5751C176.061 29.2833 175.991 29.9485 175.851 30.5708H165.53ZM165.47 26.8692H171.214C170.815 25.3671 169.878 24.6161 168.402 24.6161C166.866 24.6161 165.889 25.3671 165.47 26.8692Z" fill="#303030"/>
<path d="M189.652 14.1229H194.978V36.6542H189.652V27.9958H183.758V36.6542H178.403V14.1229H183.758V22.4595H189.652V14.1229Z" fill="#303030"/>
<path d="M219.452 25.3886C219.452 28.1138 218.704 30.5171 217.208 32.5986L219.093 34.7873L215.353 38.3601L213.289 35.9783C211.793 36.7508 210.187 37.137 208.472 37.137C205.4 37.137 202.798 36.0104 200.663 33.7573C198.549 31.4827 197.492 28.6932 197.492 25.3886C197.492 22.084 198.549 19.3051 200.663 17.052C202.798 14.7774 205.4 13.6401 208.472 13.6401C211.544 13.6401 214.137 14.7774 216.251 17.052C218.385 19.3051 219.452 22.084 219.452 25.3886ZM208.472 31.5042C208.691 31.5042 208.981 31.4827 209.34 31.4398L206.527 28.1889L210.297 24.6483L213.498 28.3176C213.917 27.4164 214.127 26.44 214.127 25.3886C214.127 23.6075 213.588 22.1484 212.511 21.0111C211.434 19.8523 210.088 19.2729 208.472 19.2729C206.856 19.2729 205.51 19.8523 204.433 21.0111C203.356 22.1484 202.818 23.6075 202.818 25.3886C202.818 27.1696 203.356 28.6395 204.433 29.7983C205.51 30.9356 206.856 31.5042 208.472 31.5042Z" fill="#303030"/>
<defs>
<linearGradient id="paint0_linear_356_319" x1="18.3628" y1="24.3131" x2="10.9557" y2="24.3131" gradientUnits="userSpaceOnUse">
<stop stop-color="white"/>
<stop offset="1" stop-color="white" stop-opacity="0.8"/>
</linearGradient>
<linearGradient id="paint1_linear_356_319" x1="32.7888" y1="20.7448" x2="25.3818" y2="20.7448" gradientUnits="userSpaceOnUse">
<stop stop-color="white"/>
<stop offset="1" stop-color="white" stop-opacity="0.8"/>
</linearGradient>
<linearGradient id="paint2_linear_356_319" x1="36.369" y1="8.08851" x2="28.8106" y2="10.4839" gradientUnits="userSpaceOnUse">
<stop stop-color="white"/>
<stop offset="1" stop-color="white" stop-opacity="0.8"/>
</linearGradient>
<linearGradient id="paint3_linear_356_319" x1="30.7597" y1="36.9466" x2="23.3527" y2="36.9466" gradientUnits="userSpaceOnUse">
<stop stop-color="white"/>
<stop offset="1" stop-color="white" stop-opacity="0.8"/>
</linearGradient>
<linearGradient id="paint4_linear_356_319" x1="30.055" y1="40.0217" x2="22.6479" y2="40.0217" gradientUnits="userSpaceOnUse">
<stop stop-color="white"/>
<stop offset="1" stop-color="white" stop-opacity="0.8"/>
</linearGradient>
<linearGradient id="paint5_linear_356_319" x1="42.0736" y1="30.1812" x2="34.6666" y2="30.1812" gradientUnits="userSpaceOnUse">
<stop stop-color="white"/>
<stop offset="1" stop-color="white" stop-opacity="0.8"/>
</linearGradient>
</defs>
</svg>
